<?xml version="1.0" standalone="no"?>
<!DOCTYPE svg PUBLIC "-//W3C//DTD SVG 20010904//EN"
 "http://www.w3.org/TR/2001/REC-SVG-20010904/DTD/svg10.dtd">
<svg version="1.0" xmlns="http://www.w3.org/2000/svg"
 width="66.000000pt" height="60.000000pt" viewBox="0 0 278.000000 300.000000"
 preserveAspectRatio="xMidYMid meet">

<g transform="translate(0.000000,300.000000) scale(0.100000,-0.100000)"
fill="#f69322" stroke="none">
<path d="M330 2920 l0 -80 -40 0 -40 0 0 -84 0 -83 979 -8 c539 -4 984 -4 990
-1 7 4 11 41 11 92 l0 84 -40 0 -40 0 0 80 0 80 -80 0 -80 0 0 -80 0 -80 -60
0 -60 0 0 80 0 80 -80 0 -80 0 0 -80 0 -80 -473 2 -472 3 -3 78 -3 77 -79 0
-80 0 0 -80 0 -80 -55 0 -55 0 0 80 0 80 -80 0 -80 0 0 -80z"/>
<path d="M505 2563 c-13 -59 -37 -113 -71 -157 -62 -81 -216 -176 -367 -225
l-67 -23 0 -40 c0 -39 0 -40 33 -33 59 13 207 74 277 115 76 44 180 136 207
181 10 16 20 29 23 29 3 0 16 -21 29 -46 35 -65 136 -170 227 -236 73 -52 219
-138 237 -138 4 0 7 19 7 43 0 41 -1 43 -63 76 -215 117 -365 283 -385 427 -7
48 -8 49 -44 52 -34 3 -38 0 -43 -25z"/>
<path d="M831 2583 c0 -5 65 -55 145 -112 l144 -104 0 -212 0 -211 -67 -22
c-254 -81 -613 -146 -975 -178 l-78 -6 0 -39 c0 -47 -13 -45 201 -24 276 28
563 80 789 145 58 16 111 30 117 30 10 0 13 -191 13 -925 l0 -925 120 0 120 0
0 974 0 974 94 46 c221 107 373 237 471 401 9 14 16 9 49 -35 73 -96 220 -190
389 -249 l87 -30 0 43 c0 42 -1 43 -42 55 -24 7 -89 35 -144 62 -164 80 -272
195 -290 307 -6 41 -8 42 -44 42 -37 0 -37 0 -44 -49 -21 -156 -189 -331 -442
-461 l-79 -40 -3 157 c-1 86 -1 162 2 168 2 6 67 57 145 114 78 56 141 105
141 107 0 2 -184 4 -410 4 -226 0 -410 -3 -409 -7z"/>
<path d="M1436 1913 c-3 -4 -6 -21 -6 -40 0 -40 1 -41 168 -82 225 -57 508
-102 780 -126 l72 -6 0 40 0 40 -52 5 c-29 3 -100 10 -158 16 -225 23 -662
107 -771 149 -15 5 -30 7 -33 4z"/>
<path d="M1667 1014 c-4 -4 -7 -31 -7 -61 l0 -53 -80 0 -80 0 0 -40 0 -40 640
0 640 0 0 40 0 40 -80 0 -79 0 -3 58 -3 57 -135 0 -135 0 -3 -57 -3 -58 -199
0 -199 0 -3 58 -3 57 -131 3 c-71 1 -133 -1 -137 -4z"/>
<path d="M1540 405 l0 -375 600 0 600 0 0 375 0 375 -600 0 -600 0 0 -375z
m970 205 c0 -39 1 -40 35 -40 31 0 35 -3 35 -25 0 -22 -4 -25 -35 -25 -34 0
-35 -1 -35 -40 0 -38 -2 -40 -29 -40 -27 0 -30 3 -33 38 -3 35 -5 37 -40 40
-32 3 -38 7 -38 27 0 20 6 24 38 27 35 3 37 5 40 41 3 34 6 37 33 37 27 0 29
-2 29 -40z m-600 -65 l0 -25 -110 0 -110 0 0 25 0 25 110 0 110 0 0 -25z"/>
</g>
</svg>
