<?xml version="1.0" standalone="no"?>
<!DOCTYPE svg PUBLIC "-//W3C//DTD SVG 20010904//EN"
 "http://www.w3.org/TR/2001/REC-SVG-20010904/DTD/svg10.dtd">
<svg version="1.0" xmlns="http://www.w3.org/2000/svg"
 width="66.000000pt" height="60.000000pt" viewBox="0 0 300.000000 230.000000"
 preserveAspectRatio="xMidYMid meet">

<g transform="translate(0.000000,230.000000) scale(0.100000,-0.100000)"
fill="#f69322" stroke="none">
<path d="M380 2165 l0 -135 -190 0 -190 0 0 -95 0 -95 1500 0 1500 0 0 95 0
95 -190 0 -190 0 0 135 0 135 -325 0 -325 0 0 -135 0 -135 -470 0 -470 0 0
135 0 135 -325 0 -325 0 0 -135z"/>
<path d="M90 880 l0 -880 1410 0 1410 0 0 880 0 880 -1410 0 -1410 0 0 -880z
m2272 483 l3 -88 93 -3 92 -3 0 -69 0 -70 -95 0 -95 0 0 -90 0 -90 -70 0 -70
0 0 90 0 90 -90 0 -90 0 0 70 0 70 90 0 90 0 0 90 0 90 70 0 69 0 3 -87z
m-1402 -163 l0 -70 -250 0 -250 0 0 70 0 70 250 0 250 0 0 -70z"/>
</g>
</svg>
