<?xml version="1.0" standalone="no"?>
<!DOCTYPE svg PUBLIC "-//W3C//DTD SVG 20010904//EN"
 "http://www.w3.org/TR/2001/REC-SVG-20010904/DTD/svg10.dtd">
<svg version="1.0" xmlns="http://www.w3.org/2000/svg"
 width="66.000000pt" height="60.000000pt" viewBox="0 0 66.000000 80.000000"
 preserveAspectRatio="xMidYMid meet">

<g transform="translate(0.000000,80.000000) scale(0.100000,-0.100000)"
fill="#f69322" stroke="none">
<path d="M90 780 c0 -11 -7 -20 -15 -20 -9 0 -15 -9 -15 -25 l0 -25 270 0 270
0 0 25 c0 14 -4 25 -10 25 -5 0 -10 9 -10 20 0 15 -7 20 -25 20 -18 0 -25 -5
-25 -20 0 -11 -7 -20 -15 -20 -8 0 -15 9 -15 20 0 13 -7 20 -20 20 -13 0 -20
-7 -20 -20 0 -19 -7 -20 -125 -20 -118 0 -125 1 -125 20 0 15 -7 20 -25 20
-18 0 -25 -5 -25 -20 0 -11 -7 -20 -15 -20 -8 0 -15 9 -15 20 0 13 -7 20 -20
20 -13 0 -20 -7 -20 -20z"/>
<path d="M120 657 c-10 -22 -31 -40 -67 -57 -29 -14 -52 -30 -53 -37 0 -20 84
14 115 47 l28 29 20 -26 c22 -27 94 -83 109 -83 22 0 2 28 -38 53 -32 19 -51
39 -62 67 -21 48 -32 50 -52 7z"/>
<path d="M258 659 c43 -31 43 -32 40 -87 l-3 -56 -50 -13 c-27 -8 -92 -19
-144 -26 -62 -8 -96 -17 -99 -26 -4 -11 8 -13 59 -7 59 7 164 27 217 42 l22 6
0 -246 0 -246 35 0 35 0 0 260 0 260 38 19 c21 11 54 37 73 58 l36 39 36 -31
c40 -35 107 -61 106 -42 0 7 -24 23 -52 37 -36 18 -57 35 -67 57 -17 36 -40
44 -40 14 0 -27 -40 -72 -89 -99 l-41 -23 0 45 c0 25 3 46 8 46 4 1 21 12 37
25 l30 25 -114 0 -115 0 42 -31z"/>
<path d="M380 500 c0 -15 33 -26 139 -44 114 -19 144 -20 139 -4 -3 7 -43 17
-99 25 -52 6 -110 17 -129 22 -43 14 -50 14 -50 1z"/>
</g>
</svg>
