<?xml version="1.0" standalone="no"?>
<!DOCTYPE svg PUBLIC "-//W3C//DTD SVG 20010904//EN"
 "http://www.w3.org/TR/2001/REC-SVG-20010904/DTD/svg10.dtd">
<svg version="1.0" xmlns="http://www.w3.org/2000/svg"
 width="66.000000pt" height="60.000000pt" viewBox="0 0 512.000000 512.000000"
 preserveAspectRatio="xMidYMid meet">

<g transform="translate(0.000000,512.000000) scale(0.100000,-0.100000)"
fill="#f69322" stroke="none">
<path d="M895 4466 c-37 -17 -70 -52 -84 -89 -6 -16 -11 -78 -11 -138 0 -105
2 -113 39 -202 43 -100 85 -235 96 -310 l7 -47 498 0 498 0 7 47 c11 75 53
210 96 312 l41 94 -4 123 c-3 133 -10 153 -72 198 -27 21 -40 21 -554 23 -424
2 -533 0 -557 -11z"/>
<path d="M960 2400 l0 -1120 160 0 160 0 0 -80 0 -79 -429 -3 c-416 -3 -430
-4 -457 -24 -64 -47 -69 -63 -69 -214 0 -151 5 -167 69 -214 l27 -21 2139 0
2139 0 27 21 c64 47 69 63 69 214 0 151 -5 167 -69 214 -27 20 -40 21 -537 24
l-509 3 0 159 0 160 160 0 160 0 0 80 0 80 -480 0 -480 0 0 -80 0 -80 160 0
160 0 0 -160 0 -160 -880 0 -880 0 0 80 0 80 160 0 160 0 0 1120 0 1120 -480
0 -480 0 0 -1120z"/>
<path d="M2238 3439 l-158 -79 0 -960 0 -960 160 -80 160 -80 0 1120 c0 616
-1 1120 -2 1119 -2 0 -74 -36 -160 -80z"/>
<path d="M2560 2400 l0 -1120 160 80 160 80 0 960 0 960 -160 80 -160 80 0
-1120z"/>
<path d="M415 3346 c-41 -18 -83 -69 -90 -109 -3 -18 -5 -406 -3 -864 3 -822
3 -832 24 -859 39 -53 71 -69 134 -69 63 0 95 16 134 69 18 23 22 45 24 137
l4 109 79 0 79 0 0 640 0 640 -79 0 -79 0 -4 109 c-3 118 -12 141 -70 184 -33
25 -113 32 -153 13z"/>
<path d="M3040 3280 l0 -80 480 0 480 0 0 80 0 80 -480 0 -480 0 0 -80z"/>
<path d="M4160 2400 l0 -960 33 0 c65 1 174 31 257 71 164 81 297 253 335 434
11 54 15 155 15 455 0 439 -4 474 -71 610 -58 118 -161 221 -279 279 -83 40
-192 70 -257 71 l-33 0 0 -960z"/>
<path d="M3040 2880 l0 -160 480 0 480 0 0 160 0 160 -480 0 -480 0 0 -160z"/>
<path d="M3040 2400 l0 -160 480 0 480 0 0 160 0 160 -480 0 -480 0 0 -160z"/>
<path d="M3040 1920 l0 -160 480 0 480 0 0 160 0 160 -480 0 -480 0 0 -160z"/>
</g>
</svg>
